<svg width="45" height="28" viewBox="0 0 45 28" fill="none" xmlns="http://www.w3.org/2000/svg">
<path d="M41.25 3.73333H28.125V0H41.25V3.73333ZM44.4375 22.4C43.6875 24.8267 40.6875 28 34.875 28C29.0625 28 24.375 24.8267 24.375 17.36C24.375 10.08 28.6875 6.34667 34.6875 6.34667C40.5 6.34667 44.0625 9.70667 44.8125 14.56C45 15.4933 45 16.8 45 18.6667H30C30.1875 24.64 36.5625 24.8267 38.625 22.4H44.4375ZM30 14.9333H39.375C39.1875 12.1333 37.3125 10.8267 34.6875 10.8267C32.0625 10.8267 30.5625 12.1333 30 14.9333ZM12.1875 28H0V0H13.125C23.4375 0.186667 23.625 10.08 18.1875 12.88C24.5625 15.3067 24.75 28 12.1875 28ZM5.625 11.2H12.375C17.0625 11.2 17.8125 5.6 11.8125 5.6H5.625V11.2ZM12 16.8H5.625V22.4H11.8125C17.625 22.4 17.25 16.8 12 16.8Z" fill="#F4F1DE"/>
</svg>
